<svg xmlns="http://www.w3.org/2000/svg" width="36" height="36" viewBox="0 0 36 36" fill="none"><path d="M35 18C35 8.616 27.384 1 18 1C8.616 1 1 8.616 1 18C1 27.384 8.616 35 18 35" stroke="#3270FC" stroke-width="1.7" stroke-linecap="round" stroke-linejoin="round"></path><path d="M11.2003 2.69971H12.9003C9.58531 12.6277 9.58531 23.3717 12.9003 33.2997H11.2003" stroke="#3270FC" stroke-width="1.7" stroke-linecap="round" stroke-linejoin="round"></path><path d="M23.1006 2.69971C24.7496 7.66371 25.5826 12.8317 25.5826 17.9997" stroke="#3270FC" stroke-width="1.7" stroke-linecap="round" stroke-linejoin="round"></path><path d="M2.69971 24.8006V23.1006C7.66371 24.7496 12.8317 25.5826 17.9997 25.5826" stroke="#3270FC" stroke-width="1.7" stroke-linecap="round" stroke-linejoin="round"></path><path d="M2.69971 12.9003C12.6277 9.58531 23.3717 9.58531 33.2997 12.9003" stroke="#3270FC" stroke-width="1.7" stroke-linecap="round" stroke-linejoin="round"></path><path d="M30.2572 24.357L24.2392 30.375C24.0012 30.613 23.7802 31.055 23.7292 31.378L23.4061 33.6729C23.2871 34.5059 23.8652 35.0839 24.6982 34.9649L26.9932 34.6419C27.3162 34.5909 27.7752 34.37 27.9962 34.132L34.0142 28.114C35.0512 27.077 35.5442 25.8699 34.0142 24.3399C32.5012 22.8269 31.2942 23.32 30.2572 24.357Z" stroke="#3270FC" stroke-width="1.7" stroke-miterlimit="10" stroke-linecap="round" stroke-linejoin="round"></path><path d="M29.3906 25.2256C29.9006 27.0616 31.3286 28.4895 33.1646 28.9995" stroke="#3270FC" stroke-width="1.7" stroke-miterlimit="10" stroke-linecap="round" stroke-linejoin="round"></path></svg>