<svg xmlns="http://www.w3.org/2000/svg" width="36" height="34" viewBox="0 0 36 34" fill="none"><path d="M35 24.9319V4.41291C35 2.37291 33.334 0.859905 31.311 1.02991H31.209C27.639 1.33591 22.216 3.15491 19.19 5.05891L18.901 5.2459C18.408 5.5519 17.592 5.5519 17.099 5.2459L16.674 4.99091C13.648 3.10391 8.242 1.30191 4.672 1.01291C2.649 0.842905 1 2.3729 1 4.3959V24.9319C1 26.5639 2.326 28.0939 3.958 28.2979L4.451 28.3659C8.14 28.8589 13.835 30.7289 17.099 32.5139L17.167 32.5479C17.626 32.8029 18.357 32.8029 18.799 32.5479C22.063 30.7459 27.775 28.8589 31.481 28.3659L32.042 28.2979C33.674 28.0939 35 26.5639 35 24.9319Z" stroke="#3270FC" stroke-width="2" stroke-linecap="round" stroke-linejoin="round"></path><path d="M18 5.80713V31.3071" stroke="#3270FC" stroke-width="2" stroke-linecap="round" stroke-linejoin="round"></path><path d="M10.7747 10.9067H6.94971" stroke="#3270FC" stroke-width="2" stroke-linecap="round" stroke-linejoin="round"></path><path d="M28.4689 23.9499L24.8003 24.853" stroke="#3270FC" stroke-width="2" stroke-linecap="round" stroke-linejoin="round"></path><path d="M12.0497 16.0068H6.94971" stroke="#3270FC" stroke-width="2" stroke-linecap="round" stroke-linejoin="round"></path></svg>