<svg xmlns="http://www.w3.org/2000/svg" width="38" height="41" viewBox="0 0 38 41" fill="none"><path d="M14.1576 18.1252C13.9645 18.1059 13.7328 18.1059 13.5204 18.1252C8.92537 17.9708 5.27637 14.2059 5.27637 9.57227C5.27637 4.84208 9.09914 1 13.8486 1C18.5788 1 22.4209 4.84208 22.4209 9.57227C22.4016 14.2059 18.7526 17.9708 14.1576 18.1252Z" stroke="#3270FC" stroke-width="2" stroke-linecap="round" stroke-linejoin="round"></path><path d="M27.231 4.86133C30.9765 4.86133 33.9884 7.89251 33.9884 11.6188C33.9884 15.2678 31.0924 18.241 27.482 18.3762C27.3275 18.3569 27.1537 18.3569 26.98 18.3762" stroke="#3270FC" stroke-width="2" stroke-linecap="round" stroke-linejoin="round"></path><path d="M4.50421 25.25C-0.168069 28.3777 -0.168069 33.4747 4.50421 36.5831C9.81361 40.1356 18.521 40.1356 23.8304 36.5831C28.5027 33.4554 28.5027 28.3584 23.8304 25.25C18.5403 21.7168 9.83292 21.7168 4.50421 25.25Z" stroke="#3270FC" stroke-width="2" stroke-linecap="round" stroke-linejoin="round"></path><path d="M30.957 35.7516C32.3471 35.462 33.66 34.9021 34.7412 34.0719C37.7531 31.813 37.7531 28.0868 34.7412 25.8279C33.6793 25.017 32.3857 24.4764 31.015 24.1675" stroke="#3270FC" stroke-width="2" stroke-linecap="round" stroke-linejoin="round"></path></svg>