<svg xmlns="http://www.w3.org/2000/svg" width="38" height="38" viewBox="0 0 38 38" fill="none"><path d="M31.574 13.9076C31.574 16.5122 30.8016 18.9014 29.4723 20.8953C27.5323 23.7693 24.4607 25.7991 20.886 26.3201C20.2753 26.4278 19.6466 26.4817 18.9999 26.4817C18.3532 26.4817 17.7245 26.4278 17.1138 26.3201C13.5391 25.7991 10.4675 23.7693 8.52745 20.8953C7.19819 18.9014 6.42578 16.5122 6.42578 13.9076C6.42578 6.95592 12.0482 1.3335 18.9999 1.3335C25.9516 1.3335 31.574 6.95592 31.574 13.9076Z" stroke="#3270FC" stroke-width="1.7" stroke-linecap="round" stroke-linejoin="round"></path><path d="M35.6158 30.9185L32.6519 31.619C31.9873 31.7807 31.4663 32.2837 31.3226 32.9483L30.6939 35.5889C30.3526 37.0259 28.5204 37.4571 27.5684 36.3254L19 26.4816L10.4316 36.3433C9.4796 37.475 7.64737 37.0439 7.30607 35.6068L6.67737 32.9663C6.5157 32.3016 5.99477 31.7807 5.3481 31.637L2.38421 30.9365C1.01902 30.6131 0.534015 28.9066 1.52198 27.9187L8.52756 20.9131C10.4676 23.7872 13.5392 25.817 17.1139 26.338C17.7246 26.4457 18.3533 26.4996 19 26.4996C19.6467 26.4996 20.2754 26.4457 20.8861 26.338C24.4608 25.817 27.5324 23.7872 29.4724 20.9131L36.478 27.9187C37.466 28.8887 36.981 30.5952 35.6158 30.9185Z" stroke="#3270FC" stroke-width="1.7" stroke-linecap="round" stroke-linejoin="round"></path><path d="M20.042 8.48283L21.1018 10.6025C21.2455 10.8899 21.6227 11.1773 21.964 11.2312L23.886 11.5545C25.1075 11.7521 25.3949 12.6502 24.5147 13.5304L23.0238 15.0213C22.7723 15.2728 22.6286 15.7579 22.7184 16.1171L23.1496 17.9673C23.4909 19.4223 22.7184 19.9971 21.4251 19.2247L19.6288 18.1649C19.3055 17.9673 18.7666 17.9673 18.4432 18.1649L16.6469 19.2247C15.3536 19.9791 14.5812 19.4223 14.9225 17.9673L15.3536 16.1171C15.4255 15.7758 15.2997 15.2728 15.0482 15.0213L13.5573 13.5304C12.6771 12.6502 12.9645 11.77 14.186 11.5545L16.1081 11.2312C16.4314 11.1773 16.8086 10.8899 16.9523 10.6025L18.0121 8.48283C18.5331 7.3332 19.4671 7.3332 20.042 8.48283Z" stroke="#3270FC" stroke-width="1.7" stroke-linecap="round" stroke-linejoin="round"></path></svg>